<?xml version="1.0" encoding="UTF-8" standalone="no"?>
<!-- Created with Inkscape (http://www.inkscape.org/) -->
<svg
   xmlns:dc="http://purl.org/dc/elements/1.1/"
   xmlns:cc="http://creativecommons.org/ns#"
   xmlns:rdf="http://www.w3.org/1999/02/22-rdf-syntax-ns#"
   xmlns:svg="http://www.w3.org/2000/svg"
   xmlns="http://www.w3.org/2000/svg"
   xmlns:sodipodi="http://sodipodi.sourceforge.net/DTD/sodipodi-0.dtd"
   xmlns:inkscape="http://www.inkscape.org/namespaces/inkscape"
   width="96"
   height="96"
   id="svg2679"
   sodipodi:version="0.32"
   inkscape:version="0.46"
   version="1.0"
   sodipodi:docname="red-cross.svg"
   inkscape:output_extension="org.inkscape.output.svg.inkscape"
   inkscape:export-filename="/Users/nat/Programming/team-piazza/buildServerResources/red-cross.png"
   inkscape:export-xdpi="90"
   inkscape:export-ydpi="90">
  <defs
     id="defs2681">
    <filter
       inkscape:collect="always"
       id="filter5808">
      <feGaussianBlur
         inkscape:collect="always"
         stdDeviation="0.7015625"
         id="feGaussianBlur5810" />
    </filter>
    <inkscape:perspective
       sodipodi:type="inkscape:persp3d"
       inkscape:vp_x="0 : 526.18109 : 1"
       inkscape:vp_y="0 : 1000 : 0"
       inkscape:vp_z="744.09448 : 526.18109 : 1"
       inkscape:persp3d-origin="372.04724 : 350.78739 : 1"
       id="perspective2687" />
  </defs>
  <sodipodi:namedview
     id="base"
     pagecolor="#ffffff"
     bordercolor="#666666"
     borderopacity="1.0"
     gridtolerance="10000"
     guidetolerance="10"
     objecttolerance="10"
     inkscape:pageopacity="0.0"
     inkscape:pageshadow="2"
     inkscape:zoom="5.5208333"
     inkscape:cx="48"
     inkscape:cy="48"
     inkscape:document-units="px"
     inkscape:current-layer="layer1"
     showgrid="false"
     inkscape:window-width="918"
     inkscape:window-height="745"
     inkscape:window-x="225"
     inkscape:window-y="0"
     units="px" />
  <metadata
     id="metadata2684">
    <rdf:RDF>
      <cc:Work
         rdf:about="">
        <dc:format>image/svg+xml</dc:format>
        <dc:type
           rdf:resource="http://purl.org/dc/dcmitype/StillImage" />
      </cc:Work>
    </rdf:RDF>
  </metadata>
  <g
     inkscape:label="Layer 1"
     inkscape:groupmode="layer"
     id="layer1"
     transform="translate(-299.68385,-208.38978)">
    <g
       id="g2457"
       transform="matrix(2.4680208,0,0,2.4680208,-435.03132,-302.98195)">
      <path
         style="opacity:0.2;fill:#000000;fill-opacity:1;fill-rule:nonzero;stroke:none;stroke-width:2;marker:none;marker-start:none;marker-mid:none;marker-end:none;stroke-miterlimit:4;stroke-dasharray:none;stroke-opacity:1;visibility:visible;display:inline;overflow:visible;filter:url(#filter5808);enable-background:accumulate"
         d="M 435.53125,450.21875 C 430.70903,454.13943 426.68031,458.90968 422.59375,463.5625 C 419.05482,459.55355 415.25192,455.65378 412.75,450.875 C 410.38542,451.875 408.02083,452.875 405.65625,453.875 C 408.63185,459.71759 413.19344,464.52965 417.59375,469.3125 C 414.57271,473.10282 411.3812,476.98448 409.98604,481.71479 C 409.80068,482.64276 408.84413,483.89543 410.14889,484.3075 C 411.42957,485.66157 412.68266,483.12025 413.90084,482.67191 C 417.03875,480.31661 419.726,477.43628 422.34375,474.53125 C 424.73161,477.08275 426.9249,479.84244 429.54856,482.15696 C 431.39945,483.69757 433.38869,485.06899 435.46875,486.28125 C 435.89269,485.7577 437.14199,485.50555 436.69489,484.69541 C 435.67524,481.15167 434.45061,477.55854 432.04198,474.69348 C 430.54497,472.68087 428.94847,470.7444 427.3125,468.84375 C 431.30536,464.48381 435.14565,459.92809 439.75,456.1875 C 438.34375,454.19792 436.9375,452.20833 435.53125,450.21875 z"
         id="path5802"
         transform="matrix(0.971776,0,0,0.9717513,-92.736628,-227.63842)" />
      <path
         class="failing"
         id="path5791"
         transform="translate(299.68385,208.38978)"
         d="M 29.03125,0 C 24.345132,3.8099259 20.439971,8.4473661 16.46875,12.96875 C 13.029702,9.073048 9.3375558,5.2687857 6.90625,0.625 C 4.6084077,1.5967513 2.2978421,2.5907487 0,3.5625 C 2.8916167,9.2400444 7.3176343,13.914759 11.59375,18.5625 C 8.6579762,22.245748 5.574533,25.997065 4.21875,30.59375 C 4.0386217,31.495506 3.1070655,32.72457 4.375,33.125 C 5.6195342,34.44082 6.8162019,31.966925 8,31.53125 C 11.049346,29.242484 13.674883,26.447967 16.21875,23.625 C 18.539215,26.104423 20.66914,28.782112 23.21875,31.03125 C 25.017401,32.528339 26.947398,33.853235 28.96875,35.03125 C 29.380724,34.522489 30.590731,34.287255 30.15625,33.5 C 29.165378,30.056366 27.996899,26.565376 25.65625,23.78125 C 24.201492,21.825494 22.621046,19.940709 21.03125,18.09375 C 24.911415,13.856973 28.650603,9.4474232 33.125,5.8125 C 31.75844,3.8791231 30.39781,1.933377 29.03125,0 z"
         style="fill:#ff0000;fill-opacity:1;fill-rule:nonzero;stroke:none;stroke-width:2;marker:none;marker-start:none;marker-mid:none;marker-end:none;stroke-miterlimit:4;stroke-dasharray:none;stroke-opacity:1;visibility:visible;display:inline;overflow:visible;enable-background:accumulate" />
    </g>
  </g>
</svg>
